<?xml version="1.0" encoding="utf-8" standalone="no"?>
<!DOCTYPE svg PUBLIC "-//W3C//DTD SVG 1.1//EN"
  "http://www.w3.org/Graphics/SVG/1.1/DTD/svg11.dtd">
<svg xmlns:xlink="http://www.w3.org/1999/xlink" width="756pt" height="295.2pt" viewBox="0 0 756 295.2" xmlns="http://www.w3.org/2000/svg" version="1.1">
 <metadata>
  <rdf:RDF xmlns:dc="http://purl.org/dc/elements/1.1/" xmlns:cc="http://creativecommons.org/ns#" xmlns:rdf="http://www.w3.org/1999/02/22-rdf-syntax-ns#">
   <cc:Work>
    <dc:type rdf:resource="http://purl.org/dc/dcmitype/StillImage"/>
    <dc:date>2026-09-20T00:50:22.439075</dc:date>
    <dc:format>image/svg+xml</dc:format>
    <dc:creator>
     <cc:Agent>
      <dc:title>Matplotlib v3.11.1, https://matplotlib.org/</dc:title>
     </cc:Agent>
    </dc:creator>
   </cc:Work>
  </rdf:RDF>
 </metadata>
 <defs>
  <style type="text/css">*{stroke-linejoin: round; stroke-linecap: butt}</style>
 </defs>
 <g id="figure_1">
  <g id="patch_1">
   <path d="M 0 295.2 
L 756 295.2 
L 756 0 
L 0 0 
z
" style="fill: #ffffff"/>
  </g>
  <g id="axes_1">
   <g id="patch_2">
    <path d="M 47.501021 261.198979 
L 377.17 261.198979 
L 377.17 18.118365 
L 47.501021 18.118365 
z
" style="fill: #ffffff"/>
   </g>
   <g id="matplotlib.axis_1">
    <g id="xtick_1">
     <g id="line2d_1">
      <path d="M 62.485975 261.198979 
L 62.485975 18.118365 
" clip-path="url(#p241104d2b7)" style="fill: none; stroke: #b0b0b0; stroke-opacity: 0.2; stroke-width: 0.8; stroke-linecap: square"/>
     </g>
     <g id="line2d_2">
      <defs>
       <path id="m21751b3a4a" d="M 0 0 
L 0 3.5 
" style="stroke: #000000; stroke-width: 0.8"/>
      </defs>
      <g>
       <use xlink:href="#m21751b3a4a" x="62.485975" y="261.198979" style="stroke: #000000; stroke-width: 0.8"/>
      </g>
     </g>
     <g id="text_1">
      <!-- 7 -->
      <g transform="translate(59.304725 275.796635) scale(0.1 -0.1)">
       <defs>
        <path id="DejaVuSans-1a" d="M 525 4666 
L 3525 4666 
L 3525 4397 
L 1831 0 
L 1172 0 
L 2766 4134 
L 525 4134 
L 525 4666 
z
" transform="scale(0.015625)"/>
       </defs>
       <use xlink:href="#DejaVuSans-1a"/>
      </g>
     </g>
    </g>
    <g id="xtick_2">
     <g id="line2d_3">
      <path d="M 162.385665 261.198979 
L 162.385665 18.118365 
" clip-path="url(#p241104d2b7)" style="fill: none; stroke: #b0b0b0; stroke-opacity: 0.2; stroke-width: 0.8; stroke-linecap: square"/>
     </g>
     <g id="line2d_4">
      <g>
       <use xlink:href="#m21751b3a4a" x="162.385665" y="261.198979" style="stroke: #000000; stroke-width: 0.8"/>
      </g>
     </g>
     <g id="text_2">
      <!-- 9 -->
      <g transform="translate(159.204415 275.796635) scale(0.1 -0.1)">
       <defs>
        <path id="DejaVuSans-1c" d="M 703 97 
L 703 672 
Q 941 559 1184 500 
Q 1428 441 1663 441 
Q 2288 441 2617 861 
Q 2947 1281 2994 2138 
Q 2813 1869 2534 1725 
Q 2256 1581 1919 1581 
Q 1219 1581 811 2004 
Q 403 2428 403 3163 
Q 403 3881 828 4315 
Q 1253 4750 1959 4750 
Q 2769 4750 3195 4129 
Q 3622 3509 3622 2328 
Q 3622 1225 3098 567 
Q 2575 -91 1691 -91 
Q 1453 -91 1209 -44 
Q 966 3 703 97 
z
M 1959 2075 
Q 2384 2075 2632 2365 
Q 2881 2656 2881 3163 
Q 2881 3666 2632 3958 
Q 2384 4250 1959 4250 
Q 1534 4250 1286 3958 
Q 1038 3666 1038 3163 
Q 1038 2656 1286 2365 
Q 1534 2075 1959 2075 
z
" transform="scale(0.015625)"/>
       </defs>
       <use xlink:href="#DejaVuSans-1c"/>
      </g>
     </g>
    </g>
    <g id="xtick_3">
     <g id="line2d_5">
      <path d="M 262.285356 261.198979 
L 262.285356 18.118365 
" clip-path="url(#p241104d2b7)" style="fill: none; stroke: #b0b0b0; stroke-opacity: 0.2; stroke-width: 0.8; stroke-linecap: square"/>
     </g>
     <g id="line2d_6">
      <g>
       <use xlink:href="#m21751b3a4a" x="262.285356" y="261.198979" style="stroke: #000000; stroke-width: 0.8"/>
      </g>
     </g>
     <g id="text_3">
      <!-- 11 -->
      <g transform="translate(255.922856 275.796635) scale(0.1 -0.1)">
       <defs>
        <path id="DejaVuSans-14" d="M 794 531 
L 1825 531 
L 1825 4091 
L 703 3866 
L 703 4441 
L 1819 4666 
L 2450 4666 
L 2450 531 
L 3481 531 
L 3481 0 
L 794 0 
L 794 531 
z
" transform="scale(0.015625)"/>
       </defs>
       <use xlink:href="#DejaVuSans-14"/>
       <use xlink:href="#DejaVuSans-14" transform="translate(63.625 0)"/>
      </g>
     </g>
    </g>
    <g id="xtick_4">
     <g id="line2d_7">
      <path d="M 362.185046 261.198979 
L 362.185046 18.118365 
" clip-path="url(#p241104d2b7)" style="fill: none; stroke: #b0b0b0; stroke-opacity: 0.2; stroke-width: 0.8; stroke-linecap: square"/>
     </g>
     <g id="line2d_8">
      <g>
       <use xlink:href="#m21751b3a4a" x="362.185046" y="261.198979" style="stroke: #000000; stroke-width: 0.8"/>
      </g>
     </g>
     <g id="text_4">
      <!-- 13 -->
      <g transform="translate(355.822546 275.796635) scale(0.1 -0.1)">
       <defs>
        <path id="DejaVuSans-16" d="M 2597 2516 
Q 3050 2419 3304 2112 
Q 3559 1806 3559 1356 
Q 3559 666 3084 287 
Q 2609 -91 1734 -91 
Q 1441 -91 1130 -33 
Q 819 25 488 141 
L 488 750 
Q 750 597 1062 519 
Q 1375 441 1716 441 
Q 2309 441 2620 675 
Q 2931 909 2931 1356 
Q 2931 1769 2642 2001 
Q 2353 2234 1838 2234 
L 1294 2234 
L 1294 2753 
L 1863 2753 
Q 2328 2753 2575 2939 
Q 2822 3125 2822 3475 
Q 2822 3834 2567 4026 
Q 2313 4219 1838 4219 
Q 1578 4219 1281 4162 
Q 984 4106 628 3988 
L 628 4550 
Q 988 4650 1302 4700 
Q 1616 4750 1894 4750 
Q 2613 4750 3031 4423 
Q 3450 4097 3450 3541 
Q 3450 3153 3228 2886 
Q 3006 2619 2597 2516 
z
" transform="scale(0.015625)"/>
       </defs>
       <use xlink:href="#DejaVuSans-14"/>
       <use xlink:href="#DejaVuSans-16" transform="translate(63.625 0)"/>
      </g>
     </g>
    </g>
    <g id="text_5">
     <!-- Distance d -->
     <g transform="translate(185.709729 289.797416) scale(0.1 -0.1)">
      <defs>
       <path id="DejaVuSans-27" d="M 1259 4147 
L 1259 519 
L 2022 519 
Q 2988 519 3436 956 
Q 3884 1394 3884 2338 
Q 3884 3275 3436 3711 
Q 2988 4147 2022 4147 
L 1259 4147 
z
M 628 4666 
L 1925 4666 
Q 3281 4666 3915 4102 
Q 4550 3538 4550 2338 
Q 4550 1131 3912 565 
Q 3275 0 1925 0 
L 628 0 
L 628 4666 
z
" transform="scale(0.015625)"/>
       <path id="DejaVuSans-4c" d="M 603 3500 
L 1178 3500 
L 1178 0 
L 603 0 
L 603 3500 
z
M 603 4863 
L 1178 4863 
L 1178 4134 
L 603 4134 
L 603 4863 
z
" transform="scale(0.015625)"/>
       <path id="DejaVuSans-56" d="M 2834 3397 
L 2834 2853 
Q 2591 2978 2328 3040 
Q 2066 3103 1784 3103 
Q 1356 3103 1142 2972 
Q 928 2841 928 2578 
Q 928 2378 1081 2264 
Q 1234 2150 1697 2047 
L 1894 2003 
Q 2506 1872 2764 1633 
Q 3022 1394 3022 966 
Q 3022 478 2636 193 
Q 2250 -91 1575 -91 
Q 1294 -91 989 -36 
Q 684 19 347 128 
L 347 722 
Q 666 556 975 473 
Q 1284 391 1588 391 
Q 1994 391 2212 530 
Q 2431 669 2431 922 
Q 2431 1156 2273 1281 
Q 2116 1406 1581 1522 
L 1381 1569 
Q 847 1681 609 1914 
Q 372 2147 372 2553 
Q 372 3047 722 3315 
Q 1072 3584 1716 3584 
Q 2034 3584 2315 3537 
Q 2597 3491 2834 3397 
z
" transform="scale(0.015625)"/>
       <path id="DejaVuSans-57" d="M 1172 4494 
L 1172 3500 
L 2356 3500 
L 2356 3053 
L 1172 3053 
L 1172 1153 
Q 1172 725 1289 603 
Q 1406 481 1766 481 
L 2356 481 
L 2356 0 
L 1766 0 
Q 1100 0 847 248 
Q 594 497 594 1153 
L 594 3053 
L 172 3053 
L 172 3500 
L 594 3500 
L 594 4494 
L 1172 4494 
z
" transform="scale(0.015625)"/>
       <path id="DejaVuSans-44" d="M 2194 1759 
Q 1497 1759 1228 1600 
Q 959 1441 959 1056 
Q 959 750 1161 570 
Q 1363 391 1709 391 
Q 2188 391 2477 730 
Q 2766 1069 2766 1631 
L 2766 1759 
L 2194 1759 
z
M 3341 1997 
L 3341 0 
L 2766 0 
L 2766 531 
Q 2569 213 2275 61 
Q 1981 -91 1556 -91 
Q 1019 -91 701 211 
Q 384 513 384 1019 
Q 384 1609 779 1909 
Q 1175 2209 1959 2209 
L 2766 2209 
L 2766 2266 
Q 2766 2663 2505 2880 
Q 2244 3097 1772 3097 
Q 1472 3097 1187 3025 
Q 903 2953 641 2809 
L 641 3341 
Q 956 3463 1253 3523 
Q 1550 3584 1831 3584 
Q 2591 3584 2966 3190 
Q 3341 2797 3341 1997 
z
" transform="scale(0.015625)"/>
       <path id="DejaVuSans-51" d="M 3513 2113 
L 3513 0 
L 2938 0 
L 2938 2094 
Q 2938 2591 2744 2837 
Q 2550 3084 2163 3084 
Q 1697 3084 1428 2787 
Q 1159 2491 1159 1978 
L 1159 0 
L 581 0 
L 581 3500 
L 1159 3500 
L 1159 2956 
Q 1366 3272 1645 3428 
Q 1925 3584 2291 3584 
Q 2894 3584 3203 3211 
Q 3513 2838 3513 2113 
z
" transform="scale(0.015625)"/>
       <path id="DejaVuSans-46" d="M 3122 3366 
L 3122 2828 
Q 2878 2963 2633 3030 
Q 2388 3097 2138 3097 
Q 1578 3097 1268 2742 
Q 959 2388 959 1747 
Q 959 1106 1268 751 
Q 1578 397 2138 397 
Q 2388 397 2633 464 
Q 2878 531 3122 666 
L 3122 134 
Q 2881 22 2623 -34 
Q 2366 -91 2075 -91 
Q 1284 -91 818 406 
Q 353 903 353 1747 
Q 353 2603 823 3093 
Q 1294 3584 2113 3584 
Q 2378 3584 2631 3529 
Q 2884 3475 3122 3366 
z
" transform="scale(0.015625)"/>
       <path id="DejaVuSans-48" d="M 3597 1894 
L 3597 1613 
L 953 1613 
Q 991 1019 1311 708 
Q 1631 397 2203 397 
Q 2534 397 2845 478 
Q 3156 559 3463 722 
L 3463 178 
Q 3153 47 2828 -22 
Q 2503 -91 2169 -91 
Q 1331 -91 842 396 
Q 353 884 353 1716 
Q 353 2575 817 3079 
Q 1281 3584 2069 3584 
Q 2775 3584 3186 3129 
Q 3597 2675 3597 1894 
z
M 3022 2063 
Q 3016 2534 2758 2815 
Q 2500 3097 2075 3097 
Q 1594 3097 1305 2825 
Q 1016 2553 972 2059 
L 3022 2063 
z
" transform="scale(0.015625)"/>
       <path id="DejaVuSans-3" transform="scale(0.015625)"/>
       <path id="DejaVuSans-47" d="M 2906 2969 
L 2906 4863 
L 3481 4863 
L 3481 0 
L 2906 0 
L 2906 525 
Q 2725 213 2448 61 
Q 2172 -91 1784 -91 
Q 1150 -91 751 415 
Q 353 922 353 1747 
Q 353 2572 751 3078 
Q 1150 3584 1784 3584 
Q 2172 3584 2448 3432 
Q 2725 3281 2906 2969 
z
M 947 1747 
Q 947 1113 1208 752 
Q 1469 391 1925 391 
Q 2381 391 2643 752 
Q 2906 1113 2906 1747 
Q 2906 2381 2643 2742 
Q 2381 3103 1925 3103 
Q 1469 3103 1208 2742 
Q 947 2381 947 1747 
z
" transform="scale(0.015625)"/>
      </defs>
      <use xlink:href="#DejaVuSans-27"/>
      <use xlink:href="#DejaVuSans-4c" transform="translate(77 0)"/>
      <use xlink:href="#DejaVuSans-56" transform="translate(104.78125 0)"/>
      <use xlink:href="#DejaVuSans-57" transform="translate(156.875 0)"/>
      <use xlink:href="#DejaVuSans-44" transform="translate(196.078125 0)"/>
      <use xlink:href="#DejaVuSans-51" transform="translate(257.359375 0)"/>
      <use xlink:href="#DejaVuSans-46" transform="translate(320.734375 0)"/>
      <use xlink:href="#DejaVuSans-48" transform="translate(375.71875 0)"/>
      <use xlink:href="#DejaVuSans-3" transform="translate(437.25 0)"/>
      <use xlink:href="#DejaVuSans-47" transform="translate(469.03125 0)"/>
     </g>
    </g>
   </g>
   <g id="matplotlib.axis_2">
    <g id="ytick_1">
     <g id="line2d_9">
      <path d="M 47.501021 205.946162 
L 377.17 205.946162 
" clip-path="url(#p241104d2b7)" style="fill: none; stroke: #b0b0b0; stroke-opacity: 0.2; stroke-width: 0.8; stroke-linecap: square"/>
     </g>
     <g id="line2d_10">
      <defs>
       <path id="mae3d8670af" d="M 0 0 
L -3.5 0 
" style="stroke: #000000; stroke-width: 0.8"/>
      </defs>
      <g>
       <use xlink:href="#mae3d8670af" x="47.501021" y="205.946162" style="stroke: #000000; stroke-width: 0.8"/>
      </g>
     </g>
     <g id="text_6">
      <!-- $\mathdefault{10^{-4}}$ -->
      <g transform="translate(17.001021 210.596162) scale(0.1 -0.1)">
       <defs>
        <path id="DejaVuSans-13" d="M 2034 4250 
Q 1547 4250 1301 3770 
Q 1056 3291 1056 2328 
Q 1056 1369 1301 889 
Q 1547 409 2034 409 
Q 2525 409 2770 889 
Q 3016 1369 3016 2328 
Q 3016 3291 2770 3770 
Q 2525 4250 2034 4250 
z
M 2034 4750 
Q 2819 4750 3233 4129 
Q 3647 3509 3647 2328 
Q 3647 1150 3233 529 
Q 2819 -91 2034 -91 
Q 1250 -91 836 529 
Q 422 1150 422 2328 
Q 422 3509 836 4129 
Q 1250 4750 2034 4750 
z
" transform="scale(0.015625)"/>
        <path id="DejaVuSans-c9c" d="M 678 2272 
L 4684 2272 
L 4684 1741 
L 678 1741 
L 678 2272 
z
" transform="scale(0.015625)"/>
        <path id="DejaVuSans-17" d="M 2419 4116 
L 825 1625 
L 2419 1625 
L 2419 4116 
z
M 2253 4666 
L 3047 4666 
L 3047 1625 
L 3713 1625 
L 3713 1100 
L 3047 1100 
L 3047 0 
L 2419 0 
L 2419 1100 
L 313 1100 
L 313 1709 
L 2253 4666 
z
" transform="scale(0.015625)"/>
       </defs>
       <use xlink:href="#DejaVuSans-14" transform="translate(0 0.665625)"/>
       <use xlink:href="#DejaVuSans-13" transform="translate(63.623047 0.665625)"/>
       <use xlink:href="#DejaVuSans-c9c" transform="translate(128.203125 41.965625) scale(0.7)"/>
       <use xlink:href="#DejaVuSans-17" transform="translate(186.855469 41.965625) scale(0.7)"/>
      </g>
     </g>
    </g>
    <g id="ytick_2">
     <g id="line2d_11">
      <path d="M 47.501021 62.699703 
L 377.17 62.699703 
" clip-path="url(#p241104d2b7)" style="fill: none; stroke: #b0b0b0; stroke-opacity: 0.2; stroke-width: 0.8; stroke-linecap: square"/>
     </g>
     <g id="line2d_12">
      <g>
       <use xlink:href="#mae3d8670af" x="47.501021" y="62.699703" style="stroke: #000000; stroke-width: 0.8"/>
      </g>
     </g>
     <g id="text_7">
      <!-- $\mathdefault{10^{-3}}$ -->
      <g transform="translate(17.001021 67.399703) scale(0.1 -0.1)">
       <use xlink:href="#DejaVuSans-14" transform="translate(0 0.746875)"/>
       <use xlink:href="#DejaVuSans-13" transform="translate(63.623047 0.746875)"/>
       <use xlink:href="#DejaVuSans-c9c" transform="translate(128.203125 42.046875) scale(0.7)"/>
       <use xlink:href="#DejaVuSans-16" transform="translate(186.855469 42.046875) scale(0.7)"/>
      </g>
     </g>
    </g>
    <g id="ytick_3">
     <g id="line2d_13">
      <defs>
       <path id="mac05d761ed" d="M 0 0 
L -2 0 
" style="stroke: #000000; stroke-width: 0.6"/>
      </defs>
      <g>
       <use xlink:href="#mac05d761ed" x="47.501021" y="249.067642" style="stroke: #000000; stroke-width: 0.6"/>
      </g>
     </g>
    </g>
    <g id="ytick_4">
     <g id="line2d_14">
      <g>
       <use xlink:href="#mac05d761ed" x="47.501021" y="237.725209" style="stroke: #000000; stroke-width: 0.6"/>
      </g>
     </g>
    </g>
    <g id="ytick_5">
     <g id="line2d_15">
      <g>
       <use xlink:href="#mac05d761ed" x="47.501021" y="228.135319" style="stroke: #000000; stroke-width: 0.6"/>
      </g>
     </g>
    </g>
    <g id="ytick_6">
     <g id="line2d_16">
      <g>
       <use xlink:href="#mac05d761ed" x="47.501021" y="219.828178" style="stroke: #000000; stroke-width: 0.6"/>
      </g>
     </g>
    </g>
    <g id="ytick_7">
     <g id="line2d_17">
      <g>
       <use xlink:href="#mac05d761ed" x="47.501021" y="212.50076" style="stroke: #000000; stroke-width: 0.6"/>
      </g>
     </g>
    </g>
    <g id="ytick_8">
     <g id="line2d_18">
      <g>
       <use xlink:href="#mac05d761ed" x="47.501021" y="162.824681" style="stroke: #000000; stroke-width: 0.6"/>
      </g>
     </g>
    </g>
    <g id="ytick_9">
     <g id="line2d_19">
      <g>
       <use xlink:href="#mac05d761ed" x="47.501021" y="137.600231" style="stroke: #000000; stroke-width: 0.6"/>
      </g>
     </g>
    </g>
    <g id="ytick_10">
     <g id="line2d_20">
      <g>
       <use xlink:href="#mac05d761ed" x="47.501021" y="119.7032" style="stroke: #000000; stroke-width: 0.6"/>
      </g>
     </g>
    </g>
    <g id="ytick_11">
     <g id="line2d_21">
      <g>
       <use xlink:href="#mac05d761ed" x="47.501021" y="105.821184" style="stroke: #000000; stroke-width: 0.6"/>
      </g>
     </g>
    </g>
    <g id="ytick_12">
     <g id="line2d_22">
      <g>
       <use xlink:href="#mac05d761ed" x="47.501021" y="94.478751" style="stroke: #000000; stroke-width: 0.6"/>
      </g>
     </g>
    </g>
    <g id="ytick_13">
     <g id="line2d_23">
      <g>
       <use xlink:href="#mac05d761ed" x="47.501021" y="84.88886" style="stroke: #000000; stroke-width: 0.6"/>
      </g>
     </g>
    </g>
    <g id="ytick_14">
     <g id="line2d_24">
      <g>
       <use xlink:href="#mac05d761ed" x="47.501021" y="76.581719" style="stroke: #000000; stroke-width: 0.6"/>
      </g>
     </g>
    </g>
    <g id="ytick_15">
     <g id="line2d_25">
      <g>
       <use xlink:href="#mac05d761ed" x="47.501021" y="69.254301" style="stroke: #000000; stroke-width: 0.6"/>
      </g>
     </g>
    </g>
    <g id="ytick_16">
     <g id="line2d_26">
      <g>
       <use xlink:href="#mac05d761ed" x="47.501021" y="19.578222" style="stroke: #000000; stroke-width: 0.6"/>
      </g>
     </g>
    </g>
    <g id="text_8">
     <!-- Normalized LER (95% marginal CI) -->
     <g transform="translate(10.598678 225.858672) rotate(-90) scale(0.1 -0.1)">
      <defs>
       <path id="DejaVuSans-31" d="M 628 4666 
L 1478 4666 
L 3547 763 
L 3547 4666 
L 4159 4666 
L 4159 0 
L 3309 0 
L 1241 3903 
L 1241 0 
L 628 0 
L 628 4666 
z
" transform="scale(0.015625)"/>
       <path id="DejaVuSans-52" d="M 1959 3097 
Q 1497 3097 1228 2736 
Q 959 2375 959 1747 
Q 959 1119 1226 758 
Q 1494 397 1959 397 
Q 2419 397 2687 759 
Q 2956 1122 2956 1747 
Q 2956 2369 2687 2733 
Q 2419 3097 1959 3097 
z
M 1959 3584 
Q 2709 3584 3137 3096 
Q 3566 2609 3566 1747 
Q 3566 888 3137 398 
Q 2709 -91 1959 -91 
Q 1206 -91 779 398 
Q 353 888 353 1747 
Q 353 2609 779 3096 
Q 1206 3584 1959 3584 
z
" transform="scale(0.015625)"/>
       <path id="DejaVuSans-55" d="M 2631 2963 
Q 2534 3019 2420 3045 
Q 2306 3072 2169 3072 
Q 1681 3072 1420 2755 
Q 1159 2438 1159 1844 
L 1159 0 
L 581 0 
L 581 3500 
L 1159 3500 
L 1159 2956 
Q 1341 3275 1631 3429 
Q 1922 3584 2338 3584 
Q 2397 3584 2469 3576 
Q 2541 3569 2628 3553 
L 2631 2963 
z
" transform="scale(0.015625)"/>
       <path id="DejaVuSans-50" d="M 3328 2828 
Q 3544 3216 3844 3400 
Q 4144 3584 4550 3584 
Q 5097 3584 5394 3201 
Q 5691 2819 5691 2113 
L 5691 0 
L 5113 0 
L 5113 2094 
Q 5113 2597 4934 2840 
Q 4756 3084 4391 3084 
Q 3944 3084 3684 2787 
Q 3425 2491 3425 1978 
L 3425 0 
L 2847 0 
L 2847 2094 
Q 2847 2600 2669 2842 
Q 2491 3084 2119 3084 
Q 1678 3084 1418 2786 
Q 1159 2488 1159 1978 
L 1159 0 
L 581 0 
L 581 3500 
L 1159 3500 
L 1159 2956 
Q 1356 3278 1631 3431 
Q 1906 3584 2284 3584 
Q 2666 3584 2933 3390 
Q 3200 3197 3328 2828 
z
" transform="scale(0.015625)"/>
       <path id="DejaVuSans-4f" d="M 603 4863 
L 1178 4863 
L 1178 0 
L 603 0 
L 603 4863 
z
" transform="scale(0.015625)"/>
       <path id="DejaVuSans-5d" d="M 353 3500 
L 3084 3500 
L 3084 2975 
L 922 459 
L 3084 459 
L 3084 0 
L 275 0 
L 275 525 
L 2438 3041 
L 353 3041 
L 353 3500 
z
" transform="scale(0.015625)"/>
       <path id="DejaVuSans-2f" d="M 628 4666 
L 1259 4666 
L 1259 531 
L 3531 531 
L 3531 0 
L 628 0 
L 628 4666 
z
" transform="scale(0.015625)"/>
       <path id="DejaVuSans-28" d="M 628 4666 
L 3578 4666 
L 3578 4134 
L 1259 4134 
L 1259 2753 
L 3481 2753 
L 3481 2222 
L 1259 2222 
L 1259 531 
L 3634 531 
L 3634 0 
L 628 0 
L 628 4666 
z
" transform="scale(0.015625)"/>
       <path id="DejaVuSans-35" d="M 2841 2188 
Q 3044 2119 3236 1894 
Q 3428 1669 3622 1275 
L 4263 0 
L 3584 0 
L 2988 1197 
Q 2756 1666 2539 1819 
Q 2322 1972 1947 1972 
L 1259 1972 
L 1259 0 
L 628 0 
L 628 4666 
L 2053 4666 
Q 2853 4666 3247 4331 
Q 3641 3997 3641 3322 
Q 3641 2881 3436 2590 
Q 3231 2300 2841 2188 
z
M 1259 4147 
L 1259 2491 
L 2053 2491 
Q 2509 2491 2742 2702 
Q 2975 2913 2975 3322 
Q 2975 3731 2742 3939 
Q 2509 4147 2053 4147 
L 1259 4147 
z
" transform="scale(0.015625)"/>
       <path id="DejaVuSans-b" d="M 1984 4856 
Q 1566 4138 1362 3434 
Q 1159 2731 1159 2009 
Q 1159 1288 1364 580 
Q 1569 -128 1984 -844 
L 1484 -844 
Q 1016 -109 783 600 
Q 550 1309 550 2009 
Q 550 2706 781 3412 
Q 1013 4119 1484 4856 
L 1984 4856 
z
" transform="scale(0.015625)"/>
       <path id="DejaVuSans-18" d="M 691 4666 
L 3169 4666 
L 3169 4134 
L 1269 4134 
L 1269 2991 
Q 1406 3038 1543 3061 
Q 1681 3084 1819 3084 
Q 2600 3084 3056 2656 
Q 3513 2228 3513 1497 
Q 3513 744 3044 326 
Q 2575 -91 1722 -91 
Q 1428 -91 1123 -41 
Q 819 9 494 109 
L 494 744 
Q 775 591 1075 516 
Q 1375 441 1709 441 
Q 2250 441 2565 725 
Q 2881 1009 2881 1497 
Q 2881 1984 2565 2268 
Q 2250 2553 1709 2553 
Q 1456 2553 1204 2497 
Q 953 2441 691 2322 
L 691 4666 
z
" transform="scale(0.015625)"/>
       <path id="DejaVuSans-8" d="M 4653 2053 
Q 4381 2053 4226 1822 
Q 4072 1591 4072 1178 
Q 4072 772 4226 539 
Q 4381 306 4653 306 
Q 4919 306 5073 539 
Q 5228 772 5228 1178 
Q 5228 1588 5073 1820 
Q 4919 2053 4653 2053 
z
M 4653 2450 
Q 5147 2450 5437 2106 
Q 5728 1763 5728 1178 
Q 5728 594 5436 251 
Q 5144 -91 4653 -91 
Q 4153 -91 3862 251 
Q 3572 594 3572 1178 
Q 3572 1766 3864 2108 
Q 4156 2450 4653 2450 
z
M 1428 4353 
Q 1159 4353 1004 4120 
Q 850 3888 850 3481 
Q 850 3069 1003 2837 
Q 1156 2606 1428 2606 
Q 1700 2606 1854 2837 
Q 2009 3069 2009 3481 
Q 2009 3884 1853 4118 
Q 1697 4353 1428 4353 
z
M 4250 4750 
L 4750 4750 
L 1831 -91 
L 1331 -91 
L 4250 4750 
z
M 1428 4750 
Q 1922 4750 2215 4408 
Q 2509 4066 2509 3481 
Q 2509 2891 2217 2550 
Q 1925 2209 1428 2209 
Q 931 2209 642 2551 
Q 353 2894 353 3481 
Q 353 4063 643 4406 
Q 934 4750 1428 4750 
z
" transform="scale(0.015625)"/>
       <path id="DejaVuSans-4a" d="M 2906 1791 
Q 2906 2416 2648 2759 
Q 2391 3103 1925 3103 
Q 1463 3103 1205 2759 
Q 947 2416 947 1791 
Q 947 1169 1205 825 
Q 1463 481 1925 481 
Q 2391 481 2648 825 
Q 2906 1169 2906 1791 
z
M 3481 434 
Q 3481 -459 3084 -895 
Q 2688 -1331 1869 -1331 
Q 1566 -1331 1297 -1286 
Q 1028 -1241 775 -1147 
L 775 -588 
Q 1028 -725 1275 -790 
Q 1522 -856 1778 -856 
Q 2344 -856 2625 -561 
Q 2906 -266 2906 331 
L 2906 616 
Q 2728 306 2450 153 
Q 2172 0 1784 0 
Q 1141 0 747 490 
Q 353 981 353 1791 
Q 353 2603 747 3093 
Q 1141 3584 1784 3584 
Q 2172 3584 2450 3431 
Q 2728 3278 2906 2969 
L 2906 3500 
L 3481 3500 
L 3481 434 
z
" transform="scale(0.015625)"/>
       <path id="DejaVuSans-26" d="M 4122 4306 
L 4122 3641 
Q 3803 3938 3442 4084 
Q 3081 4231 2675 4231 
Q 1875 4231 1450 3742 
Q 1025 3253 1025 2328 
Q 1025 1406 1450 917 
Q 1875 428 2675 428 
Q 3081 428 3442 575 
Q 3803 722 4122 1019 
L 4122 359 
Q 3791 134 3420 21 
Q 3050 -91 2638 -91 
Q 1578 -91 968 557 
Q 359 1206 359 2328 
Q 359 3453 968 4101 
Q 1578 4750 2638 4750 
Q 3056 4750 3426 4639 
Q 3797 4528 4122 4306 
z
" transform="scale(0.015625)"/>
       <path id="DejaVuSans-2c" d="M 628 4666 
L 1259 4666 
L 1259 0 
L 628 0 
L 628 4666 
z
" transform="scale(0.015625)"/>
       <path id="DejaVuSans-c" d="M 513 4856 
L 1013 4856 
Q 1481 4119 1714 3412 
Q 1947 2706 1947 2009 
Q 1947 1309 1714 600 
Q 1481 -109 1013 -844 
L 513 -844 
Q 928 -128 1133 580 
Q 1338 1288 1338 2009 
Q 1338 2731 1133 3434 
Q 928 4138 513 4856 
z
" transform="scale(0.015625)"/>
      </defs>
      <use xlink:href="#DejaVuSans-31"/>
      <use xlink:href="#DejaVuSans-52" transform="translate(74.8125 0)"/>
      <use xlink:href="#DejaVuSans-55" transform="translate(136 0)"/>
      <use xlink:href="#DejaVuSans-50" transform="translate(175.359375 0)"/>
      <use xlink:href="#DejaVuSans-44" transform="translate(272.765625 0)"/>
      <use xlink:href="#DejaVuSans-4f" transform="translate(334.046875 0)"/>
      <use xlink:href="#DejaVuSans-4c" transform="translate(361.828125 0)"/>
      <use xlink:href="#DejaVuSans-5d" transform="translate(389.609375 0)"/>
      <use xlink:href="#DejaVuSans-48" transform="translate(442.09375 0)"/>
      <use xlink:href="#DejaVuSans-47" transform="translate(503.625 0)"/>
      <use xlink:href="#DejaVuSans-3" transform="translate(567.109375 0)"/>
      <use xlink:href="#DejaVuSans-2f" transform="translate(598.890625 0)"/>
      <use xlink:href="#DejaVuSans-28" transform="translate(654.609375 0)"/>
      <use xlink:href="#DejaVuSans-35" transform="translate(717.796875 0)"/>
      <use xlink:href="#DejaVuSans-3" transform="translate(787.28125 0)"/>
      <use xlink:href="#DejaVuSans-b" transform="translate(819.0625 0)"/>
      <use xlink:href="#DejaVuSans-1c" transform="translate(858.078125 0)"/>
      <use xlink:href="#DejaVuSans-18" transform="translate(921.703125 0)"/>
      <use xlink:href="#DejaVuSans-8" transform="translate(985.328125 0)"/>
      <use xlink:href="#DejaVuSans-3" transform="translate(1080.34375 0)"/>
      <use xlink:href="#DejaVuSans-50" transform="translate(1112.125 0)"/>
      <use xlink:href="#DejaVuSans-44" transform="translate(1209.53125 0)"/>
      <use xlink:href="#DejaVuSans-55" transform="translate(1270.8125 0)"/>
      <use xlink:href="#DejaVuSans-4a" transform="translate(1310.171875 0)"/>
      <use xlink:href="#DejaVuSans-4c" transform="translate(1373.65625 0)"/>
      <use xlink:href="#DejaVuSans-51" transform="translate(1401.4375 0)"/>
      <use xlink:href="#DejaVuSans-44" transform="translate(1464.8125 0)"/>
      <use xlink:href="#DejaVuSans-4f" transform="translate(1526.09375 0)"/>
      <use xlink:href="#DejaVuSans-3" transform="translate(1553.875 0)"/>
      <use xlink:href="#DejaVuSans-26" transform="translate(1585.65625 0)"/>
      <use xlink:href="#DejaVuSans-2c" transform="translate(1655.484375 0)"/>
      <use xlink:href="#DejaVuSans-c" transform="translate(1684.984375 0)"/>
     </g>
    </g>
   </g>
   <g id="LineCollection_1">
    <path d="M 62.485975 36.426373 
L 62.485975 29.167484 
" clip-path="url(#p241104d2b7)" style="fill: none; stroke: #d55e00; stroke-width: 1.5"/>
    <path d="M 162.385665 88.046747 
L 162.385665 78.808441 
" clip-path="url(#p241104d2b7)" style="fill: none; stroke: #d55e00; stroke-width: 1.5"/>
    <path d="M 262.285356 144.440016 
L 262.285356 131.806737 
" clip-path="url(#p241104d2b7)" style="fill: none; stroke: #d55e00; stroke-width: 1.5"/>
    <path d="M 362.185046 199.088659 
L 362.185046 181.641846 
" clip-path="url(#p241104d2b7)" style="fill: none; stroke: #d55e00; stroke-width: 1.5"/>
   </g>
   <g id="line2d_27">
    <defs>
     <path id="m1ead3caa76" d="M 3 0 
L -3 -0 
" style="stroke: #d55e00"/>
    </defs>
    <g clip-path="url(#p241104d2b7)">
     <use xlink:href="#m1ead3caa76" x="62.485975" y="36.426373" style="fill: #d55e00; stroke: #d55e00"/>
     <use xlink:href="#m1ead3caa76" x="162.385665" y="88.046747" style="fill: #d55e00; stroke: #d55e00"/>
     <use xlink:href="#m1ead3caa76" x="262.285356" y="144.440016" style="fill: #d55e00; stroke: #d55e00"/>
     <use xlink:href="#m1ead3caa76" x="362.185046" y="199.088659" style="fill: #d55e00; stroke: #d55e00"/>
    </g>
   </g>
   <g id="line2d_28">
    <g clip-path="url(#p241104d2b7)">
     <use xlink:href="#m1ead3caa76" x="62.485975" y="29.167484" style="fill: #d55e00; stroke: #d55e00"/>
     <use xlink:href="#m1ead3caa76" x="162.385665" y="78.808441" style="fill: #d55e00; stroke: #d55e00"/>
     <use xlink:href="#m1ead3caa76" x="262.285356" y="131.806737" style="fill: #d55e00; stroke: #d55e00"/>
     <use xlink:href="#m1ead3caa76" x="362.185046" y="181.641846" style="fill: #d55e00; stroke: #d55e00"/>
    </g>
   </g>
   <g id="LineCollection_2">
    <path d="M 62.485975 70.183905 
L 62.485975 61.088799 
" clip-path="url(#p241104d2b7)" style="fill: none; stroke: #0072b2; stroke-width: 1.5"/>
    <path d="M 162.385665 124.245756 
L 162.385665 112.298635 
" clip-path="url(#p241104d2b7)" style="fill: none; stroke: #0072b2; stroke-width: 1.5"/>
    <path d="M 262.285356 183.046378 
L 262.285356 166.305571 
" clip-path="url(#p241104d2b7)" style="fill: none; stroke: #0072b2; stroke-width: 1.5"/>
    <path d="M 362.185046 245.798592 
L 362.185046 221.300792 
" clip-path="url(#p241104d2b7)" style="fill: none; stroke: #0072b2; stroke-width: 1.5"/>
   </g>
   <g id="line2d_29">
    <defs>
     <path id="m5e57d641d4" d="M 3 0 
L -3 -0 
" style="stroke: #0072b2"/>
    </defs>
    <g clip-path="url(#p241104d2b7)">
     <use xlink:href="#m5e57d641d4" x="62.485975" y="70.183905" style="fill: #0072b2; stroke: #0072b2"/>
     <use xlink:href="#m5e57d641d4" x="162.385665" y="124.245756" style="fill: #0072b2; stroke: #0072b2"/>
     <use xlink:href="#m5e57d641d4" x="262.285356" y="183.046378" style="fill: #0072b2; stroke: #0072b2"/>
     <use xlink:href="#m5e57d641d4" x="362.185046" y="245.798592" style="fill: #0072b2; stroke: #0072b2"/>
    </g>
   </g>
   <g id="line2d_30">
    <g clip-path="url(#p241104d2b7)">
     <use xlink:href="#m5e57d641d4" x="62.485975" y="61.088799" style="fill: #0072b2; stroke: #0072b2"/>
     <use xlink:href="#m5e57d641d4" x="162.385665" y="112.298635" style="fill: #0072b2; stroke: #0072b2"/>
     <use xlink:href="#m5e57d641d4" x="262.285356" y="166.305571" style="fill: #0072b2; stroke: #0072b2"/>
     <use xlink:href="#m5e57d641d4" x="362.185046" y="221.300792" style="fill: #0072b2; stroke: #0072b2"/>
    </g>
   </g>
   <g id="LineCollection_3">
    <path d="M 62.485975 75.436685 
L 62.485975 66.003175 
" clip-path="url(#p241104d2b7)" style="fill: none; stroke: #009e73; stroke-width: 1.5"/>
    <path d="M 162.385665 131.237055 
L 162.385665 118.670116 
" clip-path="url(#p241104d2b7)" style="fill: none; stroke: #009e73; stroke-width: 1.5"/>
    <path d="M 262.285356 188.350911 
L 262.285356 170.94836 
" clip-path="url(#p241104d2b7)" style="fill: none; stroke: #009e73; stroke-width: 1.5"/>
    <path d="M 362.185046 241.089621 
L 362.185046 217.409888 
" clip-path="url(#p241104d2b7)" style="fill: none; stroke: #009e73; stroke-width: 1.5"/>
   </g>
   <g id="line2d_31">
    <defs>
     <path id="md91c374078" d="M 3 0 
L -3 -0 
" style="stroke: #009e73"/>
    </defs>
    <g clip-path="url(#p241104d2b7)">
     <use xlink:href="#md91c374078" x="62.485975" y="75.436685" style="fill: #009e73; stroke: #009e73"/>
     <use xlink:href="#md91c374078" x="162.385665" y="131.237055" style="fill: #009e73; stroke: #009e73"/>
     <use xlink:href="#md91c374078" x="262.285356" y="188.350911" style="fill: #009e73; stroke: #009e73"/>
     <use xlink:href="#md91c374078" x="362.185046" y="241.089621" style="fill: #009e73; stroke: #009e73"/>
    </g>
   </g>
   <g id="line2d_32">
    <g clip-path="url(#p241104d2b7)">
     <use xlink:href="#md91c374078" x="62.485975" y="66.003175" style="fill: #009e73; stroke: #009e73"/>
     <use xlink:href="#md91c374078" x="162.385665" y="118.670116" style="fill: #009e73; stroke: #009e73"/>
     <use xlink:href="#md91c374078" x="262.285356" y="170.94836" style="fill: #009e73; stroke: #009e73"/>
     <use xlink:href="#md91c374078" x="362.185046" y="217.409888" style="fill: #009e73; stroke: #009e73"/>
    </g>
   </g>
   <g id="line2d_33">
    <path d="M 62.485975 67.598489 
L 162.385665 130.839973 
L 262.285356 194.046097 
L 362.185046 250.14986 
" clip-path="url(#p241104d2b7)" style="fill: none; stroke: #000000; stroke-width: 1.5; stroke-linecap: square"/>
    <defs>
     <path id="m8703605029" d="M -3 3 
L 3 3 
L 3 -3 
L -3 -3 
z
" style="stroke: #000000; stroke-linejoin: miter"/>
    </defs>
    <g clip-path="url(#p241104d2b7)">
     <use xlink:href="#m8703605029" x="62.485975" y="67.598489" style="stroke: #000000; stroke-linejoin: miter"/>
     <use xlink:href="#m8703605029" x="162.385665" y="130.839973" style="stroke: #000000; stroke-linejoin: miter"/>
     <use xlink:href="#m8703605029" x="262.285356" y="194.046097" style="stroke: #000000; stroke-linejoin: miter"/>
     <use xlink:href="#m8703605029" x="362.185046" y="250.14986" style="stroke: #000000; stroke-linejoin: miter"/>
    </g>
   </g>
   <g id="line2d_34">
    <path d="M 62.485975 32.785423 
L 162.385665 83.416535 
L 262.285356 138.112601 
L 362.185046 190.354619 
" clip-path="url(#p241104d2b7)" style="fill: none; stroke: #d55e00; stroke-width: 1.5; stroke-linecap: square"/>
    <defs>
     <path id="m90d98d8fe5" d="M 0 3 
C 0.795609 3 1.55874 2.683901 2.12132 2.12132 
C 2.683901 1.55874 3 0.795609 3 0 
C 3 -0.795609 2.683901 -1.55874 2.12132 -2.12132 
C 1.55874 -2.683901 0.795609 -3 0 -3 
C -0.795609 -3 -1.55874 -2.683901 -2.12132 -2.12132 
C -2.683901 -1.55874 -3 -0.795609 -3 0 
C -3 0.795609 -2.683901 1.55874 -2.12132 2.12132 
C -1.55874 2.683901 -0.795609 3 0 3 
z
" style="stroke: #d55e00"/>
    </defs>
    <g clip-path="url(#p241104d2b7)">
     <use xlink:href="#m90d98d8fe5" x="62.485975" y="32.785423" style="fill: #d55e00; stroke: #d55e00"/>
     <use xlink:href="#m90d98d8fe5" x="162.385665" y="83.416535" style="fill: #d55e00; stroke: #d55e00"/>
     <use xlink:href="#m90d98d8fe5" x="262.285356" y="138.112601" style="fill: #d55e00; stroke: #d55e00"/>
     <use xlink:href="#m90d98d8fe5" x="362.185046" y="190.354619" style="fill: #d55e00; stroke: #d55e00"/>
    </g>
   </g>
   <g id="line2d_35">
    <path d="M 62.485975 65.625255 
L 162.385665 118.261373 
L 262.285356 174.665321 
L 362.185046 233.539128 
" clip-path="url(#p241104d2b7)" style="fill: none; stroke: #0072b2; stroke-width: 1.5; stroke-linecap: square"/>
    <defs>
     <path id="m972d4ebcce" d="M 0 3 
C 0.795609 3 1.55874 2.683901 2.12132 2.12132 
C 2.683901 1.55874 3 0.795609 3 0 
C 3 -0.795609 2.683901 -1.55874 2.12132 -2.12132 
C 1.55874 -2.683901 0.795609 -3 0 -3 
C -0.795609 -3 -1.55874 -2.683901 -2.12132 -2.12132 
C -2.683901 -1.55874 -3 -0.795609 -3 0 
C -3 0.795609 -2.683901 1.55874 -2.12132 2.12132 
C -1.55874 2.683901 -0.795609 3 0 3 
z
" style="stroke: #0072b2"/>
    </defs>
    <g clip-path="url(#p241104d2b7)">
     <use xlink:href="#m972d4ebcce" x="62.485975" y="65.625255" style="fill: #0072b2; stroke: #0072b2"/>
     <use xlink:href="#m972d4ebcce" x="162.385665" y="118.261373" style="fill: #0072b2; stroke: #0072b2"/>
     <use xlink:href="#m972d4ebcce" x="262.285356" y="174.665321" style="fill: #0072b2; stroke: #0072b2"/>
     <use xlink:href="#m972d4ebcce" x="362.185046" y="233.539128" style="fill: #0072b2; stroke: #0072b2"/>
    </g>
   </g>
   <g id="line2d_36">
    <path d="M 62.485975 70.708878 
L 162.385665 124.942795 
L 262.285356 179.638993 
L 362.185046 229.239185 
" clip-path="url(#p241104d2b7)" style="fill: none; stroke: #009e73; stroke-width: 1.5; stroke-linecap: square"/>
    <defs>
     <path id="mb1521980a1" d="M 0 3 
C 0.795609 3 1.55874 2.683901 2.12132 2.12132 
C 2.683901 1.55874 3 0.795609 3 0 
C 3 -0.795609 2.683901 -1.55874 2.12132 -2.12132 
C 1.55874 -2.683901 0.795609 -3 0 -3 
C -0.795609 -3 -1.55874 -2.683901 -2.12132 -2.12132 
C -2.683901 -1.55874 -3 -0.795609 -3 0 
C -3 0.795609 -2.683901 1.55874 -2.12132 2.12132 
C -1.55874 2.683901 -0.795609 3 0 3 
z
" style="stroke: #009e73"/>
    </defs>
    <g clip-path="url(#p241104d2b7)">
     <use xlink:href="#mb1521980a1" x="62.485975" y="70.708878" style="fill: #009e73; stroke: #009e73"/>
     <use xlink:href="#mb1521980a1" x="162.385665" y="124.942795" style="fill: #009e73; stroke: #009e73"/>
     <use xlink:href="#mb1521980a1" x="262.285356" y="179.638993" style="fill: #009e73; stroke: #009e73"/>
     <use xlink:href="#mb1521980a1" x="362.185046" y="229.239185" style="fill: #009e73; stroke: #009e73"/>
    </g>
   </g>
   <g id="patch_3">
    <path d="M 47.501021 261.198979 
L 47.501021 18.118365 
" style="fill: none; stroke: #000000; stroke-width: 0.8; stroke-linejoin: miter; stroke-linecap: square"/>
   </g>
   <g id="patch_4">
    <path d="M 377.17 261.198979 
L 377.17 18.118365 
" style="fill: none; stroke: #000000; stroke-width: 0.8; stroke-linejoin: miter; stroke-linecap: square"/>
   </g>
   <g id="patch_5">
    <path d="M 47.501021 261.198979 
L 377.17 261.198979 
" style="fill: none; stroke: #000000; stroke-width: 0.8; stroke-linejoin: miter; stroke-linecap: square"/>
   </g>
   <g id="patch_6">
    <path d="M 47.501021 18.118365 
L 377.17 18.118365 
" style="fill: none; stroke: #000000; stroke-width: 0.8; stroke-linejoin: miter; stroke-linecap: square"/>
   </g>
   <g id="text_9">
    <!-- Paired accuracy pilot -->
    <g transform="translate(149.756448 12.118365) scale(0.12 -0.12)">
     <defs>
      <path id="DejaVuSans-33" d="M 1259 4147 
L 1259 2394 
L 2053 2394 
Q 2494 2394 2734 2622 
Q 2975 2850 2975 3272 
Q 2975 3691 2734 3919 
Q 2494 4147 2053 4147 
L 1259 4147 
z
M 628 4666 
L 2053 4666 
Q 2838 4666 3239 4311 
Q 3641 3956 3641 3272 
Q 3641 2581 3239 2228 
Q 2838 1875 2053 1875 
L 1259 1875 
L 1259 0 
L 628 0 
L 628 4666 
z
" transform="scale(0.015625)"/>
      <path id="DejaVuSans-58" d="M 544 1381 
L 544 3500 
L 1119 3500 
L 1119 1403 
Q 1119 906 1312 657 
Q 1506 409 1894 409 
Q 2359 409 2629 706 
Q 2900 1003 2900 1516 
L 2900 3500 
L 3475 3500 
L 3475 0 
L 2900 0 
L 2900 538 
Q 2691 219 2414 64 
Q 2138 -91 1772 -91 
Q 1169 -91 856 284 
Q 544 659 544 1381 
z
M 1991 3584 
L 1991 3584 
z
" transform="scale(0.015625)"/>
      <path id="DejaVuSans-5c" d="M 2059 -325 
Q 1816 -950 1584 -1140 
Q 1353 -1331 966 -1331 
L 506 -1331 
L 506 -850 
L 844 -850 
Q 1081 -850 1212 -737 
Q 1344 -625 1503 -206 
L 1606 56 
L 191 3500 
L 800 3500 
L 1894 763 
L 2988 3500 
L 3597 3500 
L 2059 -325 
z
" transform="scale(0.015625)"/>
      <path id="DejaVuSans-53" d="M 1159 525 
L 1159 -1331 
L 581 -1331 
L 581 3500 
L 1159 3500 
L 1159 2969 
Q 1341 3281 1617 3432 
Q 1894 3584 2278 3584 
Q 2916 3584 3314 3078 
Q 3713 2572 3713 1747 
Q 3713 922 3314 415 
Q 2916 -91 2278 -91 
Q 1894 -91 1617 61 
Q 1341 213 1159 525 
z
M 3116 1747 
Q 3116 2381 2855 2742 
Q 2594 3103 2138 3103 
Q 1681 3103 1420 2742 
Q 1159 2381 1159 1747 
Q 1159 1113 1420 752 
Q 1681 391 2138 391 
Q 2594 391 2855 752 
Q 3116 1113 3116 1747 
z
" transform="scale(0.015625)"/>
     </defs>
     <use xlink:href="#DejaVuSans-33"/>
     <use xlink:href="#DejaVuSans-44" transform="translate(55.8125 0)"/>
     <use xlink:href="#DejaVuSans-4c" transform="translate(117.09375 0)"/>
     <use xlink:href="#DejaVuSans-55" transform="translate(144.875 0)"/>
     <use xlink:href="#DejaVuSans-48" transform="translate(183.78125 0)"/>
     <use xlink:href="#DejaVuSans-47" transform="translate(245.3125 0)"/>
     <use xlink:href="#DejaVuSans-3" transform="translate(308.796875 0)"/>
     <use xlink:href="#DejaVuSans-44" transform="translate(340.578125 0)"/>
     <use xlink:href="#DejaVuSans-46" transform="translate(401.859375 0)"/>
     <use xlink:href="#DejaVuSans-46" transform="translate(456.84375 0)"/>
     <use xlink:href="#DejaVuSans-58" transform="translate(511.828125 0)"/>
     <use xlink:href="#DejaVuSans-55" transform="translate(575.203125 0)"/>
     <use xlink:href="#DejaVuSans-44" transform="translate(616.3125 0)"/>
     <use xlink:href="#DejaVuSans-46" transform="translate(677.59375 0)"/>
     <use xlink:href="#DejaVuSans-5c" transform="translate(732.578125 0)"/>
     <use xlink:href="#DejaVuSans-3" transform="translate(791.765625 0)"/>
     <use xlink:href="#DejaVuSans-53" transform="translate(823.546875 0)"/>
     <use xlink:href="#DejaVuSans-4c" transform="translate(887.03125 0)"/>
     <use xlink:href="#DejaVuSans-4f" transform="translate(914.8125 0)"/>
     <use xlink:href="#DejaVuSans-52" transform="translate(942.59375 0)"/>
     <use xlink:href="#DejaVuSans-57" transform="translate(1003.78125 0)"/>
    </g>
   </g>
   <g id="legend_1">
    <g id="patch_7">
     <path d="M 274.02375 72.520865 
L 371.57 72.520865 
Q 373.17 72.520865 373.17 70.920865 
L 373.17 23.718365 
Q 373.17 22.118365 371.57 22.118365 
L 274.02375 22.118365 
Q 272.42375 22.118365 272.42375 23.718365 
L 272.42375 70.920865 
Q 272.42375 72.520865 274.02375 72.520865 
z
" style="fill: #ffffff; opacity: 0.8; stroke: #cccccc; stroke-linejoin: miter"/>
    </g>
    <g id="line2d_37">
     <path d="M 275.62375 28.597115 
L 283.62375 28.597115 
L 291.62375 28.597115 
" style="fill: none; stroke: #000000; stroke-width: 1.5; stroke-linecap: square"/>
     <g>
      <use xlink:href="#m8703605029" x="283.62375" y="28.597115" style="stroke: #000000; stroke-linejoin: miter"/>
     </g>
    </g>
    <g id="text_10">
     <!-- correlated_mwpm -->
     <g transform="translate(298.02375 31.397115) scale(0.08 -0.08)">
      <defs>
       <path id="DejaVuSans-42" d="M 3263 -1063 
L 3263 -1509 
L -63 -1509 
L -63 -1063 
L 3263 -1063 
z
" transform="scale(0.015625)"/>
       <path id="DejaVuSans-5a" d="M 269 3500 
L 844 3500 
L 1563 769 
L 2278 3500 
L 2956 3500 
L 3675 769 
L 4391 3500 
L 4966 3500 
L 4050 0 
L 3372 0 
L 2619 2869 
L 1863 0 
L 1184 0 
L 269 3500 
z
" transform="scale(0.015625)"/>
      </defs>
      <use xlink:href="#DejaVuSans-46"/>
      <use xlink:href="#DejaVuSans-52" transform="translate(54.984375 0)"/>
      <use xlink:href="#DejaVuSans-55" transform="translate(116.171875 0)"/>
      <use xlink:href="#DejaVuSans-55" transform="translate(155.53125 0)"/>
      <use xlink:href="#DejaVuSans-48" transform="translate(194.4375 0)"/>
      <use xlink:href="#DejaVuSans-4f" transform="translate(255.96875 0)"/>
      <use xlink:href="#DejaVuSans-44" transform="translate(283.75 0)"/>
      <use xlink:href="#DejaVuSans-57" transform="translate(345.03125 0)"/>
      <use xlink:href="#DejaVuSans-48" transform="translate(384.234375 0)"/>
      <use xlink:href="#DejaVuSans-47" transform="translate(445.765625 0)"/>
      <use xlink:href="#DejaVuSans-42" transform="translate(509.25 0)"/>
      <use xlink:href="#DejaVuSans-50" transform="translate(559.25 0)"/>
      <use xlink:href="#DejaVuSans-5a" transform="translate(656.65625 0)"/>
      <use xlink:href="#DejaVuSans-53" transform="translate(738.4375 0)"/>
      <use xlink:href="#DejaVuSans-50" transform="translate(801.921875 0)"/>
     </g>
    </g>
    <g id="LineCollection_4">
     <path d="M 283.62375 44.59774 
L 283.62375 36.59774 
" style="fill: none; stroke: #d55e00; stroke-width: 1.5"/>
    </g>
    <g id="line2d_38">
     <g>
      <use xlink:href="#m1ead3caa76" x="283.62375" y="44.59774" style="fill: #d55e00; stroke: #d55e00"/>
     </g>
    </g>
    <g id="line2d_39">
     <g>
      <use xlink:href="#m1ead3caa76" x="283.62375" y="36.59774" style="fill: #d55e00; stroke: #d55e00"/>
     </g>
    </g>
    <g id="line2d_40">
     <path d="M 275.62375 40.59774 
L 291.62375 40.59774 
" style="fill: none; stroke: #d55e00; stroke-width: 1.5; stroke-linecap: square"/>
    </g>
    <g id="line2d_41">
     <g>
      <use xlink:href="#m90d98d8fe5" x="283.62375" y="40.59774" style="fill: #d55e00; stroke: #d55e00"/>
     </g>
    </g>
    <g id="text_11">
     <!-- correlated_uf -->
     <g transform="translate(298.02375 43.39774) scale(0.08 -0.08)">
      <defs>
       <path id="DejaVuSans-49" d="M 2375 4863 
L 2375 4384 
L 1825 4384 
Q 1516 4384 1395 4259 
Q 1275 4134 1275 3809 
L 1275 3500 
L 2222 3500 
L 2222 3053 
L 1275 3053 
L 1275 0 
L 697 0 
L 697 3053 
L 147 3053 
L 147 3500 
L 697 3500 
L 697 3744 
Q 697 4328 969 4595 
Q 1241 4863 1831 4863 
L 2375 4863 
z
" transform="scale(0.015625)"/>
      </defs>
      <use xlink:href="#DejaVuSans-46"/>
      <use xlink:href="#DejaVuSans-52" transform="translate(54.984375 0)"/>
      <use xlink:href="#DejaVuSans-55" transform="translate(116.171875 0)"/>
      <use xlink:href="#DejaVuSans-55" transform="translate(155.53125 0)"/>
      <use xlink:href="#DejaVuSans-48" transform="translate(194.4375 0)"/>
      <use xlink:href="#DejaVuSans-4f" transform="translate(255.96875 0)"/>
      <use xlink:href="#DejaVuSans-44" transform="translate(283.75 0)"/>
      <use xlink:href="#DejaVuSans-57" transform="translate(345.03125 0)"/>
      <use xlink:href="#DejaVuSans-48" transform="translate(384.234375 0)"/>
      <use xlink:href="#DejaVuSans-47" transform="translate(445.765625 0)"/>
      <use xlink:href="#DejaVuSans-42" transform="translate(509.25 0)"/>
      <use xlink:href="#DejaVuSans-58" transform="translate(559.25 0)"/>
      <use xlink:href="#DejaVuSans-49" transform="translate(622.625 0)"/>
     </g>
    </g>
    <g id="LineCollection_5">
     <path d="M 283.62375 56.598365 
L 283.62375 48.598365 
" style="fill: none; stroke: #0072b2; stroke-width: 1.5"/>
    </g>
    <g id="line2d_42">
     <g>
      <use xlink:href="#m5e57d641d4" x="283.62375" y="56.598365" style="fill: #0072b2; stroke: #0072b2"/>
     </g>
    </g>
    <g id="line2d_43">
     <g>
      <use xlink:href="#m5e57d641d4" x="283.62375" y="48.598365" style="fill: #0072b2; stroke: #0072b2"/>
     </g>
    </g>
    <g id="line2d_44">
     <path d="M 275.62375 52.598365 
L 291.62375 52.598365 
" style="fill: none; stroke: #0072b2; stroke-width: 1.5; stroke-linecap: square"/>
    </g>
    <g id="line2d_45">
     <g>
      <use xlink:href="#m972d4ebcce" x="283.62375" y="52.598365" style="fill: #0072b2; stroke: #0072b2"/>
     </g>
    </g>
    <g id="text_12">
     <!-- bp5_uf -->
     <g transform="translate(298.02375 55.398365) scale(0.08 -0.08)">
      <defs>
       <path id="DejaVuSans-45" d="M 3116 1747 
Q 3116 2381 2855 2742 
Q 2594 3103 2138 3103 
Q 1681 3103 1420 2742 
Q 1159 2381 1159 1747 
Q 1159 1113 1420 752 
Q 1681 391 2138 391 
Q 2594 391 2855 752 
Q 3116 1113 3116 1747 
z
M 1159 2969 
Q 1341 3281 1617 3432 
Q 1894 3584 2278 3584 
Q 2916 3584 3314 3078 
Q 3713 2572 3713 1747 
Q 3713 922 3314 415 
Q 2916 -91 2278 -91 
Q 1894 -91 1617 61 
Q 1341 213 1159 525 
L 1159 0 
L 581 0 
L 581 4863 
L 1159 4863 
L 1159 2969 
z
" transform="scale(0.015625)"/>
      </defs>
      <use xlink:href="#DejaVuSans-45"/>
      <use xlink:href="#DejaVuSans-53" transform="translate(63.484375 0)"/>
      <use xlink:href="#DejaVuSans-18" transform="translate(126.96875 0)"/>
      <use xlink:href="#DejaVuSans-42" transform="translate(190.59375 0)"/>
      <use xlink:href="#DejaVuSans-58" transform="translate(240.59375 0)"/>
      <use xlink:href="#DejaVuSans-49" transform="translate(303.96875 0)"/>
     </g>
    </g>
    <g id="LineCollection_6">
     <path d="M 283.62375 68.59899 
L 283.62375 60.59899 
" style="fill: none; stroke: #009e73; stroke-width: 1.5"/>
    </g>
    <g id="line2d_46">
     <g>
      <use xlink:href="#md91c374078" x="283.62375" y="68.59899" style="fill: #009e73; stroke: #009e73"/>
     </g>
    </g>
    <g id="line2d_47">
     <g>
      <use xlink:href="#md91c374078" x="283.62375" y="60.59899" style="fill: #009e73; stroke: #009e73"/>
     </g>
    </g>
    <g id="line2d_48">
     <path d="M 275.62375 64.59899 
L 291.62375 64.59899 
" style="fill: none; stroke: #009e73; stroke-width: 1.5; stroke-linecap: square"/>
    </g>
    <g id="line2d_49">
     <g>
      <use xlink:href="#mb1521980a1" x="283.62375" y="64.59899" style="fill: #009e73; stroke: #009e73"/>
     </g>
    </g>
    <g id="text_13">
     <!-- bp20_uf -->
     <g transform="translate(298.02375 67.39899) scale(0.08 -0.08)">
      <defs>
       <path id="DejaVuSans-15" d="M 1228 531 
L 3431 531 
L 3431 0 
L 469 0 
L 469 531 
Q 828 903 1448 1529 
Q 2069 2156 2228 2338 
Q 2531 2678 2651 2914 
Q 2772 3150 2772 3378 
Q 2772 3750 2511 3984 
Q 2250 4219 1831 4219 
Q 1534 4219 1204 4116 
Q 875 4013 500 3803 
L 500 4441 
Q 881 4594 1212 4672 
Q 1544 4750 1819 4750 
Q 2544 4750 2975 4387 
Q 3406 4025 3406 3419 
Q 3406 3131 3298 2873 
Q 3191 2616 2906 2266 
Q 2828 2175 2409 1742 
Q 1991 1309 1228 531 
z
" transform="scale(0.015625)"/>
      </defs>
      <use xlink:href="#DejaVuSans-45"/>
      <use xlink:href="#DejaVuSans-53" transform="translate(63.484375 0)"/>
      <use xlink:href="#DejaVuSans-15" transform="translate(126.96875 0)"/>
      <use xlink:href="#DejaVuSans-13" transform="translate(190.59375 0)"/>
      <use xlink:href="#DejaVuSans-42" transform="translate(254.21875 0)"/>
      <use xlink:href="#DejaVuSans-58" transform="translate(304.21875 0)"/>
      <use xlink:href="#DejaVuSans-49" transform="translate(367.59375 0)"/>
     </g>
    </g>
   </g>
  </g>
  <g id="axes_2">
   <g id="patch_8">
    <path d="M 423.330781 261.198979 
L 752.99976 261.198979 
L 752.99976 18.118365 
L 423.330781 18.118365 
z
" style="fill: #ffffff"/>
   </g>
   <g id="matplotlib.axis_3">
    <g id="xtick_5">
     <g id="line2d_50">
      <path d="M 438.315735 261.198979 
L 438.315735 18.118365 
" clip-path="url(#p1a5660f6cd)" style="fill: none; stroke: #b0b0b0; stroke-opacity: 0.2; stroke-width: 0.8; stroke-linecap: square"/>
     </g>
     <g id="line2d_51">
      <g>
       <use xlink:href="#m21751b3a4a" x="438.315735" y="261.198979" style="stroke: #000000; stroke-width: 0.8"/>
      </g>
     </g>
     <g id="text_14">
      <!-- 7 -->
      <g transform="translate(435.134485 275.796635) scale(0.1 -0.1)">
       <use xlink:href="#DejaVuSans-1a"/>
      </g>
     </g>
    </g>
    <g id="xtick_6">
     <g id="line2d_52">
      <path d="M 538.215425 261.198979 
L 538.215425 18.118365 
" clip-path="url(#p1a5660f6cd)" style="fill: none; stroke: #b0b0b0; stroke-opacity: 0.2; stroke-width: 0.8; stroke-linecap: square"/>
     </g>
     <g id="line2d_53">
      <g>
       <use xlink:href="#m21751b3a4a" x="538.215425" y="261.198979" style="stroke: #000000; stroke-width: 0.8"/>
      </g>
     </g>
     <g id="text_15">
      <!-- 9 -->
      <g transform="translate(535.034175 275.796635) scale(0.1 -0.1)">
       <use xlink:href="#DejaVuSans-1c"/>
      </g>
     </g>
    </g>
    <g id="xtick_7">
     <g id="line2d_54">
      <path d="M 638.115116 261.198979 
L 638.115116 18.118365 
" clip-path="url(#p1a5660f6cd)" style="fill: none; stroke: #b0b0b0; stroke-opacity: 0.2; stroke-width: 0.8; stroke-linecap: square"/>
     </g>
     <g id="line2d_55">
      <g>
       <use xlink:href="#m21751b3a4a" x="638.115116" y="261.198979" style="stroke: #000000; stroke-width: 0.8"/>
      </g>
     </g>
     <g id="text_16">
      <!-- 11 -->
      <g transform="translate(631.752616 275.796635) scale(0.1 -0.1)">
       <use xlink:href="#DejaVuSans-14"/>
       <use xlink:href="#DejaVuSans-14" transform="translate(63.625 0)"/>
      </g>
     </g>
    </g>
    <g id="xtick_8">
     <g id="line2d_56">
      <path d="M 738.014806 261.198979 
L 738.014806 18.118365 
" clip-path="url(#p1a5660f6cd)" style="fill: none; stroke: #b0b0b0; stroke-opacity: 0.2; stroke-width: 0.8; stroke-linecap: square"/>
     </g>
     <g id="line2d_57">
      <g>
       <use xlink:href="#m21751b3a4a" x="738.014806" y="261.198979" style="stroke: #000000; stroke-width: 0.8"/>
      </g>
     </g>
     <g id="text_17">
      <!-- 13 -->
      <g transform="translate(731.652306 275.796635) scale(0.1 -0.1)">
       <use xlink:href="#DejaVuSans-14"/>
       <use xlink:href="#DejaVuSans-16" transform="translate(63.625 0)"/>
      </g>
     </g>
    </g>
    <g id="text_18">
     <!-- Distance d -->
     <g transform="translate(561.539489 289.797416) scale(0.1 -0.1)">
      <use xlink:href="#DejaVuSans-27"/>
      <use xlink:href="#DejaVuSans-4c" transform="translate(77 0)"/>
      <use xlink:href="#DejaVuSans-56" transform="translate(104.78125 0)"/>
      <use xlink:href="#DejaVuSans-57" transform="translate(156.875 0)"/>
      <use xlink:href="#DejaVuSans-44" transform="translate(196.078125 0)"/>
      <use xlink:href="#DejaVuSans-51" transform="translate(257.359375 0)"/>
      <use xlink:href="#DejaVuSans-46" transform="translate(320.734375 0)"/>
      <use xlink:href="#DejaVuSans-48" transform="translate(375.71875 0)"/>
      <use xlink:href="#DejaVuSans-3" transform="translate(437.25 0)"/>
      <use xlink:href="#DejaVuSans-47" transform="translate(469.03125 0)"/>
     </g>
    </g>
   </g>
   <g id="matplotlib.axis_4">
    <g id="ytick_17">
     <g id="line2d_58">
      <path d="M 423.330781 173.646584 
L 752.99976 173.646584 
" clip-path="url(#p1a5660f6cd)" style="fill: none; stroke: #b0b0b0; stroke-opacity: 0.2; stroke-width: 0.8; stroke-linecap: square"/>
     </g>
     <g id="line2d_59">
      <g>
       <use xlink:href="#mae3d8670af" x="423.330781" y="173.646584" style="stroke: #000000; stroke-width: 0.8"/>
      </g>
     </g>
     <g id="text_19">
      <!-- $\mathdefault{10^{2}}$ -->
      <g transform="translate(398.730781 178.346584) scale(0.1 -0.1)">
       <use xlink:href="#DejaVuSans-14" transform="translate(0 0.746875)"/>
       <use xlink:href="#DejaVuSans-13" transform="translate(63.623047 0.746875)"/>
       <use xlink:href="#DejaVuSans-15" transform="translate(128.203125 42.046875) scale(0.7)"/>
      </g>
     </g>
    </g>
    <g id="ytick_18">
     <g id="line2d_60">
      <path d="M 423.330781 75.006416 
L 752.99976 75.006416 
" clip-path="url(#p1a5660f6cd)" style="fill: none; stroke: #b0b0b0; stroke-opacity: 0.2; stroke-width: 0.8; stroke-linecap: square"/>
     </g>
     <g id="line2d_61">
      <g>
       <use xlink:href="#mae3d8670af" x="423.330781" y="75.006416" style="stroke: #000000; stroke-width: 0.8"/>
      </g>
     </g>
     <g id="text_20">
      <!-- $\mathdefault{10^{3}}$ -->
      <g transform="translate(398.730781 79.706416) scale(0.1 -0.1)">
       <use xlink:href="#DejaVuSans-14" transform="translate(0 0.746875)"/>
       <use xlink:href="#DejaVuSans-13" transform="translate(63.623047 0.746875)"/>
       <use xlink:href="#DejaVuSans-16" transform="translate(128.203125 42.046875) scale(0.7)"/>
      </g>
     </g>
    </g>
    <g id="ytick_19">
     <g id="line2d_62">
      <g>
       <use xlink:href="#mac05d761ed" x="423.330781" y="242.593103" style="stroke: #000000; stroke-width: 0.6"/>
      </g>
     </g>
    </g>
    <g id="ytick_20">
     <g id="line2d_63">
      <g>
       <use xlink:href="#mac05d761ed" x="423.330781" y="225.223431" style="stroke: #000000; stroke-width: 0.6"/>
      </g>
     </g>
    </g>
    <g id="ytick_21">
     <g id="line2d_64">
      <g>
       <use xlink:href="#mac05d761ed" x="423.330781" y="212.899453" style="stroke: #000000; stroke-width: 0.6"/>
      </g>
     </g>
    </g>
    <g id="ytick_22">
     <g id="line2d_65">
      <g>
       <use xlink:href="#mac05d761ed" x="423.330781" y="203.340233" style="stroke: #000000; stroke-width: 0.6"/>
      </g>
     </g>
    </g>
    <g id="ytick_23">
     <g id="line2d_66">
      <g>
       <use xlink:href="#mac05d761ed" x="423.330781" y="195.529782" style="stroke: #000000; stroke-width: 0.6"/>
      </g>
     </g>
    </g>
    <g id="ytick_24">
     <g id="line2d_67">
      <g>
       <use xlink:href="#mac05d761ed" x="423.330781" y="188.926139" style="stroke: #000000; stroke-width: 0.6"/>
      </g>
     </g>
    </g>
    <g id="ytick_25">
     <g id="line2d_68">
      <g>
       <use xlink:href="#mac05d761ed" x="423.330781" y="183.205804" style="stroke: #000000; stroke-width: 0.6"/>
      </g>
     </g>
    </g>
    <g id="ytick_26">
     <g id="line2d_69">
      <g>
       <use xlink:href="#mac05d761ed" x="423.330781" y="178.160111" style="stroke: #000000; stroke-width: 0.6"/>
      </g>
     </g>
    </g>
    <g id="ytick_27">
     <g id="line2d_70">
      <g>
       <use xlink:href="#mac05d761ed" x="423.330781" y="143.952935" style="stroke: #000000; stroke-width: 0.6"/>
      </g>
     </g>
    </g>
    <g id="ytick_28">
     <g id="line2d_71">
      <g>
       <use xlink:href="#mac05d761ed" x="423.330781" y="126.583263" style="stroke: #000000; stroke-width: 0.6"/>
      </g>
     </g>
    </g>
    <g id="ytick_29">
     <g id="line2d_72">
      <g>
       <use xlink:href="#mac05d761ed" x="423.330781" y="114.259285" style="stroke: #000000; stroke-width: 0.6"/>
      </g>
     </g>
    </g>
    <g id="ytick_30">
     <g id="line2d_73">
      <g>
       <use xlink:href="#mac05d761ed" x="423.330781" y="104.700065" style="stroke: #000000; stroke-width: 0.6"/>
      </g>
     </g>
    </g>
    <g id="ytick_31">
     <g id="line2d_74">
      <g>
       <use xlink:href="#mac05d761ed" x="423.330781" y="96.889614" style="stroke: #000000; stroke-width: 0.6"/>
      </g>
     </g>
    </g>
    <g id="ytick_32">
     <g id="line2d_75">
      <g>
       <use xlink:href="#mac05d761ed" x="423.330781" y="90.285971" style="stroke: #000000; stroke-width: 0.6"/>
      </g>
     </g>
    </g>
    <g id="ytick_33">
     <g id="line2d_76">
      <g>
       <use xlink:href="#mac05d761ed" x="423.330781" y="84.565636" style="stroke: #000000; stroke-width: 0.6"/>
      </g>
     </g>
    </g>
    <g id="ytick_34">
     <g id="line2d_77">
      <g>
       <use xlink:href="#mac05d761ed" x="423.330781" y="79.519943" style="stroke: #000000; stroke-width: 0.6"/>
      </g>
     </g>
    </g>
    <g id="ytick_35">
     <g id="line2d_78">
      <g>
       <use xlink:href="#mac05d761ed" x="423.330781" y="45.312767" style="stroke: #000000; stroke-width: 0.6"/>
      </g>
     </g>
    </g>
    <g id="ytick_36">
     <g id="line2d_79">
      <g>
       <use xlink:href="#mac05d761ed" x="423.330781" y="27.943095" style="stroke: #000000; stroke-width: 0.6"/>
      </g>
     </g>
    </g>
    <g id="text_21">
     <!-- Mean serial kernel time (ms) -->
     <g transform="translate(392.328438 211.286016) rotate(-90) scale(0.1 -0.1)">
      <defs>
       <path id="DejaVuSans-30" d="M 628 4666 
L 1569 4666 
L 2759 1491 
L 3956 4666 
L 4897 4666 
L 4897 0 
L 4281 0 
L 4281 4097 
L 3078 897 
L 2444 897 
L 1241 4097 
L 1241 0 
L 628 0 
L 628 4666 
z
" transform="scale(0.015625)"/>
       <path id="DejaVuSans-4e" d="M 581 4863 
L 1159 4863 
L 1159 1991 
L 2875 3500 
L 3609 3500 
L 1753 1863 
L 3688 0 
L 2938 0 
L 1159 1709 
L 1159 0 
L 581 0 
L 581 4863 
z
" transform="scale(0.015625)"/>
      </defs>
      <use xlink:href="#DejaVuSans-30"/>
      <use xlink:href="#DejaVuSans-48" transform="translate(86.28125 0)"/>
      <use xlink:href="#DejaVuSans-44" transform="translate(147.8125 0)"/>
      <use xlink:href="#DejaVuSans-51" transform="translate(209.09375 0)"/>
      <use xlink:href="#DejaVuSans-3" transform="translate(272.46875 0)"/>
      <use xlink:href="#DejaVuSans-56" transform="translate(304.25 0)"/>
      <use xlink:href="#DejaVuSans-48" transform="translate(356.34375 0)"/>
      <use xlink:href="#DejaVuSans-55" transform="translate(417.875 0)"/>
      <use xlink:href="#DejaVuSans-4c" transform="translate(458.984375 0)"/>
      <use xlink:href="#DejaVuSans-44" transform="translate(486.765625 0)"/>
      <use xlink:href="#DejaVuSans-4f" transform="translate(548.046875 0)"/>
      <use xlink:href="#DejaVuSans-3" transform="translate(575.828125 0)"/>
      <use xlink:href="#DejaVuSans-4e" transform="translate(607.609375 0)"/>
      <use xlink:href="#DejaVuSans-48" transform="translate(661.953125 0)"/>
      <use xlink:href="#DejaVuSans-55" transform="translate(723.484375 0)"/>
      <use xlink:href="#DejaVuSans-51" transform="translate(762.84375 0)"/>
      <use xlink:href="#DejaVuSans-48" transform="translate(826.21875 0)"/>
      <use xlink:href="#DejaVuSans-4f" transform="translate(887.75 0)"/>
      <use xlink:href="#DejaVuSans-3" transform="translate(915.53125 0)"/>
      <use xlink:href="#DejaVuSans-57" transform="translate(947.3125 0)"/>
      <use xlink:href="#DejaVuSans-4c" transform="translate(986.515625 0)"/>
      <use xlink:href="#DejaVuSans-50" transform="translate(1014.296875 0)"/>
      <use xlink:href="#DejaVuSans-48" transform="translate(1111.703125 0)"/>
      <use xlink:href="#DejaVuSans-3" transform="translate(1173.234375 0)"/>
      <use xlink:href="#DejaVuSans-b" transform="translate(1205.015625 0)"/>
      <use xlink:href="#DejaVuSans-50" transform="translate(1244.03125 0)"/>
      <use xlink:href="#DejaVuSans-56" transform="translate(1341.4375 0)"/>
      <use xlink:href="#DejaVuSans-c" transform="translate(1393.53125 0)"/>
     </g>
    </g>
   </g>
   <g id="line2d_80">
    <path d="M 438.315735 250.14986 
L 538.215425 208.788122 
L 638.115116 171.985416 
L 738.014806 143.901118 
" clip-path="url(#p1a5660f6cd)" style="fill: none; stroke: #d55e00; stroke-width: 1.5; stroke-linecap: square"/>
    <g clip-path="url(#p1a5660f6cd)">
     <use xlink:href="#m90d98d8fe5" x="438.315735" y="250.14986" style="fill: #d55e00; stroke: #d55e00"/>
     <use xlink:href="#m90d98d8fe5" x="538.215425" y="208.788122" style="fill: #d55e00; stroke: #d55e00"/>
     <use xlink:href="#m90d98d8fe5" x="638.115116" y="171.985416" style="fill: #d55e00; stroke: #d55e00"/>
     <use xlink:href="#m90d98d8fe5" x="738.014806" y="143.901118" style="fill: #d55e00; stroke: #d55e00"/>
    </g>
   </g>
   <g id="line2d_81">
    <path d="M 438.315735 174.700084 
L 538.215425 138.529292 
L 638.115116 107.873086 
L 738.014806 84.751045 
" clip-path="url(#p1a5660f6cd)" style="fill: none; stroke: #0072b2; stroke-width: 1.5; stroke-linecap: square"/>
    <g clip-path="url(#p1a5660f6cd)">
     <use xlink:href="#m972d4ebcce" x="438.315735" y="174.700084" style="fill: #0072b2; stroke: #0072b2"/>
     <use xlink:href="#m972d4ebcce" x="538.215425" y="138.529292" style="fill: #0072b2; stroke: #0072b2"/>
     <use xlink:href="#m972d4ebcce" x="638.115116" y="107.873086" style="fill: #0072b2; stroke: #0072b2"/>
     <use xlink:href="#m972d4ebcce" x="738.014806" y="84.751045" style="fill: #0072b2; stroke: #0072b2"/>
    </g>
   </g>
   <g id="line2d_82">
    <path d="M 438.315735 118.031388 
L 538.215425 81.694811 
L 638.115116 51.600277 
L 738.014806 29.167484 
" clip-path="url(#p1a5660f6cd)" style="fill: none; stroke: #009e73; stroke-width: 1.5; stroke-linecap: square"/>
    <g clip-path="url(#p1a5660f6cd)">
     <use xlink:href="#mb1521980a1" x="438.315735" y="118.031388" style="fill: #009e73; stroke: #009e73"/>
     <use xlink:href="#mb1521980a1" x="538.215425" y="81.694811" style="fill: #009e73; stroke: #009e73"/>
     <use xlink:href="#mb1521980a1" x="638.115116" y="51.600277" style="fill: #009e73; stroke: #009e73"/>
     <use xlink:href="#mb1521980a1" x="738.014806" y="29.167484" style="fill: #009e73; stroke: #009e73"/>
    </g>
   </g>
   <g id="patch_9">
    <path d="M 423.330781 261.198979 
L 423.330781 18.118365 
" style="fill: none; stroke: #000000; stroke-width: 0.8; stroke-linejoin: miter; stroke-linecap: square"/>
   </g>
   <g id="patch_10">
    <path d="M 752.99976 261.198979 
L 752.99976 18.118365 
" style="fill: none; stroke: #000000; stroke-width: 0.8; stroke-linejoin: miter; stroke-linecap: square"/>
   </g>
   <g id="patch_11">
    <path d="M 423.330781 261.198979 
L 752.99976 261.198979 
" style="fill: none; stroke: #000000; stroke-width: 0.8; stroke-linejoin: miter; stroke-linecap: square"/>
   </g>
   <g id="patch_12">
    <path d="M 423.330781 18.118365 
L 752.99976 18.118365 
" style="fill: none; stroke: #000000; stroke-width: 0.8; stroke-linejoin: miter; stroke-linecap: square"/>
   </g>
   <g id="text_22">
    <!-- Evidence + final UF; 16 shots -->
    <g transform="translate(499.798396 12.118365) scale(0.12 -0.12)">
     <defs>
      <path id="DejaVuSans-59" d="M 191 3500 
L 800 3500 
L 1894 563 
L 2988 3500 
L 3597 3500 
L 2284 0 
L 1503 0 
L 191 3500 
z
" transform="scale(0.015625)"/>
      <path id="DejaVuSans-e" d="M 2944 4013 
L 2944 2272 
L 4684 2272 
L 4684 1741 
L 2944 1741 
L 2944 0 
L 2419 0 
L 2419 1741 
L 678 1741 
L 678 2272 
L 2419 2272 
L 2419 4013 
L 2944 4013 
z
" transform="scale(0.015625)"/>
      <path id="DejaVuSans-13af" d="M 3431 3500 
L 3431 0 
L 2853 0 
L 2853 3053 
L 1275 3053 
L 1275 0 
L 697 0 
L 697 3053 
L 147 3053 
L 147 3500 
L 697 3500 
L 697 3744 
Q 697 4316 967 4589 
Q 1238 4863 1797 4863 
L 2375 4863 
L 2375 4384 
L 1825 4384 
Q 1516 4384 1395 4259 
Q 1275 4134 1275 3809 
L 1275 3500 
L 3431 3500 
z
M 2853 4856 
L 3431 4856 
L 3431 4128 
L 2853 4128 
L 2853 4856 
z
" transform="scale(0.015625)"/>
      <path id="DejaVuSans-38" d="M 556 4666 
L 1191 4666 
L 1191 1831 
Q 1191 1081 1462 751 
Q 1734 422 2344 422 
Q 2950 422 3222 751 
Q 3494 1081 3494 1831 
L 3494 4666 
L 4128 4666 
L 4128 1753 
Q 4128 841 3676 375 
Q 3225 -91 2344 -91 
Q 1459 -91 1007 375 
Q 556 841 556 1753 
L 556 4666 
z
" transform="scale(0.015625)"/>
      <path id="DejaVuSans-29" d="M 628 4666 
L 3309 4666 
L 3309 4134 
L 1259 4134 
L 1259 2759 
L 3109 2759 
L 3109 2228 
L 1259 2228 
L 1259 0 
L 628 0 
L 628 4666 
z
" transform="scale(0.015625)"/>
      <path id="DejaVuSans-1e" d="M 750 3309 
L 1409 3309 
L 1409 2516 
L 750 2516 
L 750 3309 
z
M 750 794 
L 1409 794 
L 1409 256 
L 897 -744 
L 494 -744 
L 750 256 
L 750 794 
z
" transform="scale(0.015625)"/>
      <path id="DejaVuSans-19" d="M 2113 2584 
Q 1688 2584 1439 2293 
Q 1191 2003 1191 1497 
Q 1191 994 1439 701 
Q 1688 409 2113 409 
Q 2538 409 2786 701 
Q 3034 994 3034 1497 
Q 3034 2003 2786 2293 
Q 2538 2584 2113 2584 
z
M 3366 4563 
L 3366 3988 
Q 3128 4100 2886 4159 
Q 2644 4219 2406 4219 
Q 1781 4219 1451 3797 
Q 1122 3375 1075 2522 
Q 1259 2794 1537 2939 
Q 1816 3084 2150 3084 
Q 2853 3084 3261 2657 
Q 3669 2231 3669 1497 
Q 3669 778 3244 343 
Q 2819 -91 2113 -91 
Q 1303 -91 875 529 
Q 447 1150 447 2328 
Q 447 3434 972 4092 
Q 1497 4750 2381 4750 
Q 2619 4750 2861 4703 
Q 3103 4656 3366 4563 
z
" transform="scale(0.015625)"/>
      <path id="DejaVuSans-4b" d="M 3513 2113 
L 3513 0 
L 2938 0 
L 2938 2094 
Q 2938 2591 2744 2837 
Q 2550 3084 2163 3084 
Q 1697 3084 1428 2787 
Q 1159 2491 1159 1978 
L 1159 0 
L 581 0 
L 581 4863 
L 1159 4863 
L 1159 2956 
Q 1366 3272 1645 3428 
Q 1925 3584 2291 3584 
Q 2894 3584 3203 3211 
Q 3513 2838 3513 2113 
z
" transform="scale(0.015625)"/>
     </defs>
     <use xlink:href="#DejaVuSans-28"/>
     <use xlink:href="#DejaVuSans-59" transform="translate(63.1875 0)"/>
     <use xlink:href="#DejaVuSans-4c" transform="translate(122.375 0)"/>
     <use xlink:href="#DejaVuSans-47" transform="translate(150.15625 0)"/>
     <use xlink:href="#DejaVuSans-48" transform="translate(213.640625 0)"/>
     <use xlink:href="#DejaVuSans-51" transform="translate(275.171875 0)"/>
     <use xlink:href="#DejaVuSans-46" transform="translate(338.546875 0)"/>
     <use xlink:href="#DejaVuSans-48" transform="translate(393.53125 0)"/>
     <use xlink:href="#DejaVuSans-3" transform="translate(455.0625 0)"/>
     <use xlink:href="#DejaVuSans-e" transform="translate(486.84375 0)"/>
     <use xlink:href="#DejaVuSans-3" transform="translate(570.640625 0)"/>
     <use xlink:href="#DejaVuSans-13af" transform="translate(602.421875 0)"/>
     <use xlink:href="#DejaVuSans-51" transform="translate(665.40625 0)"/>
     <use xlink:href="#DejaVuSans-44" transform="translate(728.78125 0)"/>
     <use xlink:href="#DejaVuSans-4f" transform="translate(790.0625 0)"/>
     <use xlink:href="#DejaVuSans-3" transform="translate(817.84375 0)"/>
     <use xlink:href="#DejaVuSans-38" transform="translate(849.625 0)"/>
     <use xlink:href="#DejaVuSans-29" transform="translate(922.8125 0)"/>
     <use xlink:href="#DejaVuSans-1e" transform="translate(980.328125 0)"/>
     <use xlink:href="#DejaVuSans-3" transform="translate(1014.015625 0)"/>
     <use xlink:href="#DejaVuSans-14" transform="translate(1045.796875 0)"/>
     <use xlink:href="#DejaVuSans-19" transform="translate(1109.421875 0)"/>
     <use xlink:href="#DejaVuSans-3" transform="translate(1173.046875 0)"/>
     <use xlink:href="#DejaVuSans-56" transform="translate(1204.828125 0)"/>
     <use xlink:href="#DejaVuSans-4b" transform="translate(1256.921875 0)"/>
     <use xlink:href="#DejaVuSans-52" transform="translate(1320.296875 0)"/>
     <use xlink:href="#DejaVuSans-57" transform="translate(1381.484375 0)"/>
     <use xlink:href="#DejaVuSans-56" transform="translate(1420.6875 0)"/>
    </g>
   </g>
   <g id="legend_2">
    <g id="patch_13">
     <path d="M 428.930781 60.52024 
L 507.157031 60.52024 
Q 508.757031 60.52024 508.757031 58.92024 
L 508.757031 23.718365 
Q 508.757031 22.118365 507.157031 22.118365 
L 428.930781 22.118365 
Q 427.330781 22.118365 427.330781 23.718365 
L 427.330781 58.92024 
Q 427.330781 60.52024 428.930781 60.52024 
z
" style="fill: #ffffff; opacity: 0.8; stroke: #cccccc; stroke-linejoin: miter"/>
    </g>
    <g id="line2d_83">
     <path d="M 430.530781 28.597115 
L 438.530781 28.597115 
L 446.530781 28.597115 
" style="fill: none; stroke: #d55e00; stroke-width: 1.5; stroke-linecap: square"/>
     <g>
      <use xlink:href="#m90d98d8fe5" x="438.530781" y="28.597115" style="fill: #d55e00; stroke: #d55e00"/>
     </g>
    </g>
    <g id="text_23">
     <!-- correlated_uf -->
     <g transform="translate(452.930781 31.397115) scale(0.08 -0.08)">
      <use xlink:href="#DejaVuSans-46"/>
      <use xlink:href="#DejaVuSans-52" transform="translate(54.984375 0)"/>
      <use xlink:href="#DejaVuSans-55" transform="translate(116.171875 0)"/>
      <use xlink:href="#DejaVuSans-55" transform="translate(155.53125 0)"/>
      <use xlink:href="#DejaVuSans-48" transform="translate(194.4375 0)"/>
      <use xlink:href="#DejaVuSans-4f" transform="translate(255.96875 0)"/>
      <use xlink:href="#DejaVuSans-44" transform="translate(283.75 0)"/>
      <use xlink:href="#DejaVuSans-57" transform="translate(345.03125 0)"/>
      <use xlink:href="#DejaVuSans-48" transform="translate(384.234375 0)"/>
      <use xlink:href="#DejaVuSans-47" transform="translate(445.765625 0)"/>
      <use xlink:href="#DejaVuSans-42" transform="translate(509.25 0)"/>
      <use xlink:href="#DejaVuSans-58" transform="translate(559.25 0)"/>
      <use xlink:href="#DejaVuSans-49" transform="translate(622.625 0)"/>
     </g>
    </g>
    <g id="line2d_84">
     <path d="M 430.530781 40.59774 
L 438.530781 40.59774 
L 446.530781 40.59774 
" style="fill: none; stroke: #0072b2; stroke-width: 1.5; stroke-linecap: square"/>
     <g>
      <use xlink:href="#m972d4ebcce" x="438.530781" y="40.59774" style="fill: #0072b2; stroke: #0072b2"/>
     </g>
    </g>
    <g id="text_24">
     <!-- bp5_uf -->
     <g transform="translate(452.930781 43.39774) scale(0.08 -0.08)">
      <use xlink:href="#DejaVuSans-45"/>
      <use xlink:href="#DejaVuSans-53" transform="translate(63.484375 0)"/>
      <use xlink:href="#DejaVuSans-18" transform="translate(126.96875 0)"/>
      <use xlink:href="#DejaVuSans-42" transform="translate(190.59375 0)"/>
      <use xlink:href="#DejaVuSans-58" transform="translate(240.59375 0)"/>
      <use xlink:href="#DejaVuSans-49" transform="translate(303.96875 0)"/>
     </g>
    </g>
    <g id="line2d_85">
     <path d="M 430.530781 52.598365 
L 438.530781 52.598365 
L 446.530781 52.598365 
" style="fill: none; stroke: #009e73; stroke-width: 1.5; stroke-linecap: square"/>
     <g>
      <use xlink:href="#mb1521980a1" x="438.530781" y="52.598365" style="fill: #009e73; stroke: #009e73"/>
     </g>
    </g>
    <g id="text_25">
     <!-- bp20_uf -->
     <g transform="translate(452.930781 55.398365) scale(0.08 -0.08)">
      <use xlink:href="#DejaVuSans-45"/>
      <use xlink:href="#DejaVuSans-53" transform="translate(63.484375 0)"/>
      <use xlink:href="#DejaVuSans-15" transform="translate(126.96875 0)"/>
      <use xlink:href="#DejaVuSans-13" transform="translate(190.59375 0)"/>
      <use xlink:href="#DejaVuSans-42" transform="translate(254.21875 0)"/>
      <use xlink:href="#DejaVuSans-58" transform="translate(304.21875 0)"/>
      <use xlink:href="#DejaVuSans-49" transform="translate(367.59375 0)"/>
     </g>
    </g>
   </g>
  </g>
 </g>
 <defs>
  <clipPath id="p241104d2b7">
   <rect x="47.501021" y="18.118365" width="329.668979" height="243.080614"/>
  </clipPath>
  <clipPath id="p1a5660f6cd">
   <rect x="423.330781" y="18.118365" width="329.668979" height="243.080614"/>
  </clipPath>
 </defs>
</svg>
